<svg width="512" height="512" viewBox="0 0 512 512" xmlns="http://www.w3.org/2000/svg">
  <rect width="512" height="512" rx="120" fill="#a50064" />
  <path
    fill="#ffffff"
    d="M96 248V120c0-26.51 21.49-48 48-48s48 21.49 48 48v32c0-26.51 21.49-48 48-48s48 21.49 48 48v128h-48V184c0-8.84-7.16-16-16-16s-16 7.16-16 16v128h-48V184c0-8.84-7.16-16-16-16s-16 7.16-16 16v128Z"
  />
  <path
    fill="#ffffff"
    d="M96 248V120c0-26.51 21.49-48 48-48s48 21.49 48 48v32c0-26.51 21.49-48 48-48s48 21.49 48 48v128h-48V184c0-8.84-7.16-16-16-16s-16 7.16-16 16v128h-48V184c0-8.84-7.16-16-16-16s-16 7.16-16 16v128Z"
    transform="translate(0 192)"
  />
  <circle
    cx="368"
    cy="168"
    r="72"
    fill="none"
    stroke="#ffffff"
    stroke-width="40"
    stroke-linecap="round"
    stroke-linejoin="round"
  />
  <circle
    cx="368"
    cy="360"
    r="72"
    fill="none"
    stroke="#ffffff"
    stroke-width="40"
    stroke-linecap="round"
    stroke-linejoin="round"
  />
</svg>

